<svg width="100" height="100" viewBox="0 0 100 100" fill="none" xmlns="http://www.w3.org/2000/svg">
<path d="M33.973 10.4324L48.7297 2L93 27.2973V44.1622L78.2432 52.5946V69.4595L63.4865 77.8919L48.7297 69.4595V35.7297L33.973 27.2973V10.4324Z" fill="#D9D9D9"/>
<path d="M78.2432 52.5946L93 44.1622V27.2973L48.7297 2L33.973 10.4324V27.2973L48.7297 35.7297V69.4595L63.4865 77.8919M78.2432 52.5946L63.4865 44.1622V77.8919M78.2432 52.5946V69.4595L63.4865 77.8919" stroke="black"/>
<path d="M78.2432 35.7298L33.973 11.4865V27.2973L48.7297 35.7298V69.4595L63.4865 77.8919V44.1622L78.2432 52.5946V35.7298Z" fill="black"/>
<path d="M78.2432 35.7298L33.973 11.4865V27.2973L48.7297 35.7298V69.4595L63.4865 77.8919V44.1622L78.2432 52.5946V35.7298ZM78.2432 35.7298L93 27.2973" stroke="black"/>
<path d="M15 71.5676V54.7027V20.973L29.7568 12.5405L44.5135 20.973V54.7027L59.2703 63.1351L74.027 71.5676V88.4324L59.2703 96.8649L29.7568 80L15 71.5676Z" fill="#D9D9D9" stroke="black"/>
<path d="M29.7568 29.4054L15 20.973V71.5676L59.2703 96.8649V80L29.7568 63.1351V29.4054Z" fill="black"/>
<path d="M29.7568 29.4054L15 20.973V71.5676L59.2703 96.8649V80L29.7568 63.1351M29.7568 29.4054L44.5135 20.973M29.7568 29.4054V63.1351M29.7568 63.1351L44.5135 54.7027" stroke="black"/>
<path d="M59.2703 80L74.027 71.5676" stroke="black"/>
</svg>
